<svg width="24" height="24" viewBox="0 0 24 24" fill="none" xmlns="http://www.w3.org/2000/svg">
<path fill-rule="evenodd" clip-rule="evenodd" d="M24 12C24 18.6274 18.6274 24 12 24C5.37258 24 0 18.6274 0 12C0 5.37258 5.37258 0 12 0C18.6274 0 24 5.37258 24 12ZM17.0909 7.57614C17.3252 7.81045 17.3252 8.19034 17.0909 8.42465L13.1816 12.3337L17.0909 16.2428C17.3252 16.4771 17.3252 16.857 17.0909 17.0913C16.8566 17.3256 16.4767 17.3256 16.2423 17.0913L12.3331 13.1822L8.42422 17.091C8.18991 17.3253 7.81 17.3253 7.57568 17.091C7.34136 16.8566 7.34136 16.4768 7.57568 16.2424L11.4846 12.3337L7.57568 8.42501C7.34136 8.1907 7.34136 7.81081 7.57568 7.5765C7.81 7.34219 8.18991 7.34219 8.42422 7.5765L12.3331 11.4852L16.2423 7.57614C16.4767 7.34183 16.8566 7.34183 17.0909 7.57614Z" fill="#D9D9D9"/>
</svg>
