<svg width="24" height="24" viewBox="0 0 24 24" fill="none" xmlns="http://www.w3.org/2000/svg">
<path d="M8.43109 16.2104C8.81775 15.6159 9.34677 15.1274 9.97012 14.7892C10.5935 14.4511 11.2914 14.2739 12.0006 14.2739C12.7098 14.2739 13.4077 14.4511 14.0311 14.7892C14.6544 15.1274 15.1835 15.6159 15.5701 16.2104" stroke="#051B46" stroke-linecap="round" stroke-linejoin="round"/>
<path d="M12.0005 12.274C13.1407 12.274 14.065 11.1474 14.065 9.75783C14.065 8.36821 13.1407 7.2417 12.0005 7.2417C10.8603 7.2417 9.93597 8.36821 9.93597 9.75783C9.93597 11.1474 10.8603 12.274 12.0005 12.274Z" stroke="#051B46" stroke-linecap="round" stroke-linejoin="round"/>
<path d="M2.93323 11.7261C2.93323 10.4654 3.18154 9.21706 3.66398 8.05234C4.14643 6.88761 4.85356 5.82932 5.745 4.93787C6.63645 4.04643 7.69474 3.3393 8.85947 2.85685C10.0242 2.37441 11.2725 2.1261 12.5332 2.1261" stroke="#051B46" stroke-linecap="round"/>
<path d="M2.9335 11.7109L2.9335 19.1261M2.9335 19.1261L5.06683 16.7988M2.9335 19.1261L0.800167 16.7988" stroke="#051B46" stroke-linecap="round" stroke-linejoin="round"/>
<path d="M21.0666 12.2739C21.0667 13.5346 20.8183 14.7829 20.3359 15.9477C19.8534 17.1124 19.1463 18.1707 18.2549 19.0621C17.3634 19.9536 16.3051 20.6607 15.1404 21.1431C13.9757 21.6256 12.7273 21.8739 11.4666 21.8739" stroke="#051B46" stroke-linecap="round"/>
<path d="M21.0664 12.239L21.0664 4.8739M21.0664 4.8739L18.933 7.20117M21.0664 4.8739L23.1997 7.20117" stroke="#051B46" stroke-linecap="round" stroke-linejoin="round"/>
</svg>
